<svg width="67" height="108" viewBox="0 0 67 108" fill="none" xmlns="http://www.w3.org/2000/svg">
<path fill-rule="evenodd" clip-rule="evenodd" d="M19.3191 75.622C23.7739 86.7348 30.5919 96.9195 41.0238 101.635C44.8192 103.351 49.0531 103.884 53.3698 104.474C53.6723 104.516 54.0347 104.262 54.1779 103.906C54.32 103.55 54.1892 103.227 53.8845 103.186C49.6515 102.606 45.4938 102.095 41.7718 100.412C31.4879 95.7639 24.7994 85.6878 20.4244 74.7249L20.6081 74.5795C22.6045 73.0049 24.1383 69.9197 25.0949 66.3096C26.4668 61.1348 26.7172 54.8766 25.8497 50.8464C25.4595 49.0356 24.834 47.6693 24.0128 46.9899C23.373 46.4597 22.6092 46.32 21.7444 46.6145C19.9017 47.2433 18.53 49.3265 17.705 52.1783C15.9781 58.1428 16.4363 67.5552 17.6809 71.2001C18.07 72.3379 18.4809 73.473 18.9167 74.5983C18.5698 74.8835 18.2294 75.1615 17.8914 75.4192C16.9271 76.1507 15.9656 76.7229 14.7958 76.8239C12.9733 76.979 11.3905 76.283 10.0263 75.1961C7.89897 73.4978 6.3123 70.8371 5.24975 68.7234C-0.666997 56.9509 1.51438 43.6284 6.02959 31.5802C10.5914 19.4129 17.5268 8.52948 21.0286 1.77356C21.2093 1.42623 21.1243 1.07531 20.8413 0.987878C20.5582 0.900449 20.1819 1.1123 20.0024 1.46031C16.4775 8.25967 9.50584 19.2181 4.91504 31.4668C0.27767 43.8348 -1.93891 57.5049 4.13352 69.5903C5.24017 71.7922 6.90272 74.5527 9.11815 76.3209C10.6526 77.5441 12.4518 78.2917 14.503 78.1168C16.3439 77.9591 17.7651 76.8854 19.3191 75.622ZM20.0216 73.6946L20.1135 73.6229C21.8587 72.2466 23.0919 69.5123 23.9279 66.3556C25.2462 61.383 25.4915 55.3677 24.6568 51.4933C24.3715 50.1644 23.9618 49.0931 23.4128 48.4275C22.959 47.8794 22.4215 47.6142 21.7495 47.8445C21.1147 48.0591 20.5852 48.5513 20.137 49.2203C19.6097 50.0053 19.1952 51.0156 18.8612 52.1676C17.2024 57.8989 17.6461 66.9419 18.8425 70.4439C19.2149 71.5309 19.6069 72.6161 20.0216 73.6946Z" fill="#868686"/>
<path fill-rule="evenodd" clip-rule="evenodd" d="M65.3608 103.676C65.1501 103.906 64.8033 104.149 64.4288 104.406C63.5371 105.02 62.4648 105.604 61.9635 105.898C61.6412 106.088 61.4465 106.485 61.5257 106.784C61.6061 107.083 61.9313 107.172 62.2537 106.982C62.8675 106.62 64.296 105.84 65.2916 105.086C65.8255 104.681 66.2436 104.263 66.4534 103.912C66.8113 103.314 66.7098 102.755 66.0065 102.384C65.174 101.946 63.2957 101.62 62.4689 100.252C62.3195 100.003 61.9561 100.006 61.6622 100.258C61.3661 100.51 61.2483 100.916 61.3989 101.166C62.1879 102.47 63.797 102.977 64.8288 103.394C65.0247 103.473 65.2369 103.598 65.3608 103.676Z" fill="#868686"/>
</svg>
