<svg width="33" height="32" viewBox="0 0 33 32" fill="none" xmlns="http://www.w3.org/2000/svg">
<g filter="url(#filter0_d_1_70)">
<path d="M5.70147 19.8903C6.8333 21.2594 8.78912 23.1884 12.2871 23.488C15.3964 23.7543 24.2159 22.8459 24.6046 22.8792C24.9062 22.8072 25.2078 22.7352 25.4223 22.5578C25.6368 22.3804 25.7643 22.0978 25.8918 21.8151C25.9322 21.4271 28.5701 13.0412 28.8063 9.83194C29.17 6.34005 27.6432 4.05633 26.5114 2.68719C23.8995 -0.472355 19.2355 -0.871775 16.0175 1.7885C14.3012 3.20731 13.3685 5.57399 13.5147 7.9352C11.2231 7.3475 8.72327 7.81845 6.79246 9.41462C3.68169 11.9862 3.08954 16.7307 5.70147 19.8903Z" fill="#C70000"/>
<path d="M28.309 9.78015L28.3082 9.78768L28.3077 9.79524C28.1938 11.3423 27.4906 14.1917 26.7932 16.75C26.4473 18.0192 26.1072 19.201 25.8506 20.0919L25.8304 20.1619C25.7111 20.5758 25.6105 20.9251 25.5375 21.1855C25.499 21.3227 25.4674 21.4381 25.4445 21.5267C25.434 21.5674 25.4214 21.6165 25.4113 21.6641C25.2854 21.9402 25.205 22.0887 25.1037 22.1724C25.0026 22.256 24.8419 22.307 24.5477 22.3786C24.5005 22.3794 24.4511 22.3819 24.4089 22.3842C24.3174 22.3893 24.1974 22.3975 24.0542 22.4081C23.7674 22.4294 23.3768 22.4613 22.9124 22.4994L22.7859 22.5098C21.8715 22.5849 20.6895 22.6819 19.4303 22.7723C16.7767 22.9627 13.8372 23.1189 12.3298 22.9898C9.02418 22.7067 7.1799 20.894 6.08684 19.5717C3.66012 16.6362 4.20172 12.205 7.11103 9.79999C8.91205 8.31113 11.2455 7.86941 13.3905 8.41953L14.0562 8.59026L14.0138 7.9043C13.8762 5.68319 14.7574 3.47891 16.3361 2.17387C19.3479 -0.315995 23.6955 0.065687 26.126 3.00577C27.2191 4.328 28.6527 6.48031 28.309 9.78015Z" stroke="#C70000"/>
</g>
<defs>
<filter id="filter0_d_1_70" x="0.0548096" y="0.0283203" width="32.8062" height="31.5087" filterUnits="userSpaceOnUse" color-interpolation-filters="sRGB">
<feFlood flood-opacity="0" result="BackgroundImageFix"/>
<feColorMatrix in="SourceAlpha" type="matrix" values="0 0 0 0 0 0 0 0 0 0 0 0 0 0 0 0 0 0 127 0" result="hardAlpha"/>
<feOffset dy="4"/>
<feGaussianBlur stdDeviation="2"/>
<feComposite in2="hardAlpha" operator="out"/>
<feColorMatrix type="matrix" values="0 0 0 0 0 0 0 0 0 0 0 0 0 0 0 0 0 0 0.25 0"/>
<feBlend mode="normal" in2="BackgroundImageFix" result="effect1_dropShadow_1_70"/>
<feBlend mode="normal" in="SourceGraphic" in2="effect1_dropShadow_1_70" result="shape"/>
</filter>
</defs>
</svg>
