<svg width="1200" height="111" viewBox="0 0 1200 111" fill="none" xmlns="http://www.w3.org/2000/svg">
<rect width="1200" height="111" fill="#C70000"/>
<path d="M240.424 83.4192C240.424 69.3806 251.804 58 265.843 58C279.882 58 291.262 69.3806 291.262 83.4192V111H240.424V83.4192Z" fill="#580202" fill-opacity="0.6"/>
<path d="M675.728 83.4192C675.728 69.3806 687.109 58 701.147 58C715.186 58 726.567 69.3806 726.567 83.4192V111H675.728V83.4192Z" fill="#580202" fill-opacity="0.6"/>
<path d="M940.512 27.5808C940.512 41.6194 929.131 53 915.093 53C901.054 53 889.673 41.6194 889.673 27.5808V0L940.512 0V27.5808Z" fill="#580202" fill-opacity="0.6"/>
<path d="M482.966 21.5808C482.966 35.6194 471.585 47 457.546 47C443.508 47 432.127 35.6194 432.127 21.5808V0L482.966 0V21.5808Z" fill="#580202" fill-opacity="0.6"/>
</svg>
